<?xml version="1.0" encoding="UTF-8"?>
<svg width="24px" height="24px" viewBox="0 0 24 24" version="1.1" xmlns="http://www.w3.org/2000/svg" xmlns:xlink="http://www.w3.org/1999/xlink">
    <!-- Generator: Sketch 41.2 (35397) - http://www.bohemiancoding.com/sketch -->
    <title>48</title>
    <desc>Created with Sketch.</desc>
    <defs></defs>
    <g id="Symbols" stroke="none" stroke-width="1" fill="none" fill-rule="evenodd">
        <g id="48" fill="#FFFFFF">
            <path d="M11.5126582,13.295208 L10.1903255,9.86889693 C10.1511451,9.76702782 10.1100062,9.64850881 10.0669078,9.51333635 C10.0238093,9.37816388 9.98267048,9.23417798 9.94349005,9.08137432 C9.86121116,9.39873576 9.77697451,9.66319967 9.69077758,9.87477396 L8.36844485,13.295208 L11.5126582,13.295208 Z M13.8869801,16.4217902 L13.005425,16.4217902 C12.9035558,16.4217902 12.8212782,16.3963233 12.7585895,16.3453888 C12.6959008,16.2944542 12.648885,16.2298075 12.6175407,16.1514467 L11.8300181,14.1179928 L8.05108499,14.1179928 L7.26356239,16.1514467 C7.24005413,16.2219714 7.19499732,16.2846592 7.1283906,16.3395118 C7.06178387,16.3943643 6.97950622,16.4217902 6.88155515,16.4217902 L6,16.4217902 L9.36754069,8 L10.5194394,8 L13.8869801,16.4217902 Z M17.977396,13.7418626 C17.4954768,13.7575347 17.085068,13.7957351 16.7461573,13.8564647 C16.4072466,13.9171944 16.1310288,13.9965336 15.9174955,14.0944846 C15.7039622,14.1924357 15.5492018,14.3080162 15.4532098,14.4412297 C15.3572177,14.5744431 15.3092224,14.7233265 15.3092224,14.8878843 C15.3092224,15.044606 15.3346893,15.1797764 15.3856239,15.2933996 C15.4365584,15.4070229 15.5061026,15.500075 15.5942586,15.5725588 C15.6824145,15.6450426 15.7862411,15.6979353 15.9057414,15.7312387 C16.0252417,15.7645421 16.1535557,15.7811935 16.2906872,15.7811935 C16.4748352,15.7811935 16.6433085,15.7625831 16.7961121,15.7253617 C16.9489158,15.6881403 17.0929017,15.634268 17.2280741,15.5637432 C17.3632466,15.4932185 17.4925401,15.4089818 17.6159584,15.3110307 C17.7393767,15.2130797 17.8598547,15.1014171 17.977396,14.9760398 L17.977396,13.7418626 Z M14.5981013,11.3087703 C14.9272168,10.9914089 15.2817944,10.7543709 15.6618445,10.5976492 C16.0418946,10.4409275 16.4630779,10.3625678 16.9254069,10.3625678 C17.2584405,10.3625678 17.5542483,10.4174196 17.8128391,10.5271248 C18.0714299,10.63683 18.288878,10.7896313 18.4651899,10.9855335 C18.6415018,11.1814356 18.7747132,11.4184736 18.8648282,11.6966546 C18.9549432,11.9748356 19,12.2804384 19,12.613472 L19,16.4217902 L18.5357143,16.4217902 C18.4338452,16.4217902 18.3554855,16.4051388 18.3006329,16.3718354 C18.2457803,16.3385321 18.2026825,16.2729059 18.1713382,16.1749548 L18.0537975,15.6107595 C17.8970758,15.7557271 17.7442744,15.884041 17.5953888,15.9957052 C17.4465032,16.1073695 17.2897838,16.2014011 17.125226,16.2778029 C16.9606683,16.3542047 16.7853385,16.4129745 16.5992315,16.4541139 C16.4131244,16.4952534 16.2064508,16.5158228 15.9792043,16.5158228 C15.7480398,16.5158228 15.5305917,16.4834994 15.3268535,16.4188517 C15.1231153,16.354204 14.9458266,16.2572339 14.7949819,16.1279385 C14.6441373,15.9986431 14.5246388,15.8350673 14.4364828,15.6372061 C14.3483269,15.439345 14.3042495,15.2052455 14.3042495,14.9349005 C14.3042495,14.699818 14.3688963,14.4735544 14.4981917,14.2561031 C14.6274871,14.0386517 14.8370992,13.845691 15.1270344,13.6772152 C15.4169695,13.5087394 15.7950549,13.3706304 16.261302,13.2628843 C16.727549,13.1551381 17.2995747,13.0934299 17.977396,13.0777577 L17.977396,12.613472 C17.977396,12.151143 17.8774874,11.8014629 17.6776673,11.5644213 C17.4778471,11.3273798 17.1859573,11.2088608 16.8019892,11.2088608 C16.5433983,11.2088608 16.3269297,11.2411841 16.1525769,11.3058318 C15.978224,11.3704795 15.8273816,11.4429622 15.7000452,11.5232821 C15.5727088,11.603602 15.4630053,11.6760847 15.3709313,11.7407324 C15.2788573,11.8053801 15.1877642,11.8377034 15.0976492,11.8377034 C15.0271244,11.8377034 14.9663957,11.819093 14.9154611,11.7818716 C14.8645266,11.7446502 14.8214287,11.6986139 14.7861664,11.6437613 L14.5981013,11.3087703 Z" id="Aa"></path>
        </g>
    </g>
</svg>